PathFileType	4	(X/Y/Z)	 2.2Hz3min.trc
DataRate	CameraRate	NumFrames	NumMarkers	Units	OrigDataRate	OrigDataStartFrame	OrigNumFrames
200	200	9	39	m	200	501	1000
Frame#	Time	C7			LSH			RSH			MAN			RASI			LASI			HIPR			HIPL			RPSI			LPSI			COX			RTHI1			RTHI2			RTHI3			RTHI4			RLKN			RMKN			RSHA1			RSHA2			RSHA3			RSHA4			RHEEL			RMET5			RMET1			RTOE			LTHI1			LTHI2			LTHI3			LTHI4			LLKN			LMKN			LSHA1			LSHA2			LSHA3			LSHA4			LHEEL			LMET5			LMET1			LTOE			
		X1	Y1	Z1	X2	Y2	Z2	X3	Y3	Z3	X4	Y4	Z4	X5	Y5	Z5	X6	Y6	Z6	X7	Y7	Z7	X8	Y8	Z8	X9	Y9	Z9	X10	Y10	Z10	X11	Y11	Z11	X12	Y12	Z12	X13	Y13	Z13	X14	Y14	Z14	X15	Y15	Z15	X16	Y16	Z16	X17	Y17	Z17	X18	Y18	Z18	X19	Y19	Z19	X20	Y20	Z20	X21	Y21	Z21	X22	Y22	Z22	X23	Y23	Z23	X24	Y24	Z24	X25	Y25	Z25	X26	Y26	Z26	X27	Y27	Z27	X28	Y28	Z28	X29	Y29	Z29	X30	Y30	Z30	X31	Y31	Z31	X32	Y32	Z32	X33	Y33	Z33	X34	Y34	Z34	X35	Y35	Z35	X36	Y36	Z36	X37	Y37	Z37	X38	Y38	Z38	X39	Y39	Z39	
501	2.5050	-0.314351	1.652027	-0.570113	-0.267021	1.619676	-0.806788	-0.266562	1.621578	-0.359151	-0.174389	1.578456	-0.575988	-0.195077	1.116339	-0.455761	-0.190387	1.128057	-0.688999	-0.258777	1.179243	-0.408818	-0.255134	1.195481	-0.732943	-0.374007	1.155264	-0.514489	-0.371453	1.162268	-0.626460	-0.381946	1.155230	-0.572152	-0.277512	0.886065	-0.374939	-0.264951	0.829136	-0.363109	-0.200819	0.840970	-0.362882	-0.206601	0.900977	-0.376364	-0.236670	0.537041	-0.383597	-0.210488	0.526655	-0.486269	-0.323953	0.414789	-0.353267	-0.343220	0.376526	-0.359939	-0.272233	0.394612	-0.365983	-0.286744	0.357177	-0.370019	-0.448304	0.092755	-0.442323	-0.284782	0.026433	-0.356225	-0.236145	0.042975	-0.444489	-0.201891	0.030207	-0.439883	-0.253149	0.869267	-0.776991	-0.233893	0.812134	-0.786114	-0.170688	0.827601	-0.786595	-0.181817	0.886246	-0.778971	-0.195337	0.547753	-0.760345	-0.169502	0.538407	-0.664169	-0.329315	0.403376	-0.777214	-0.341496	0.365176	-0.772836	-0.282601	0.350988	-0.789304	-0.277949	0.394831	-0.792102	-0.414557	0.095546	-0.724701	-0.247864	0.029250	-0.796246	-0.200983	0.041020	-0.712789	-0.162206	0.028136	-0.720188	
502	2.5100	-0.314406	1.656245	-0.570252	-0.266932	1.624442	-0.806626	-0.266585	1.626804	-0.359350	-0.174730	1.583045	-0.575985	-0.194914	1.120434	-0.455736	-0.189919	1.132747	-0.688588	-0.258168	1.183892	-0.408826	-0.254243	1.200567	-0.732377	-0.373562	1.160245	-0.514222	-0.371029	1.167176	-0.626390	-0.381590	1.160394	-0.571978	-0.278235	0.890067	-0.374860	-0.265920	0.833066	-0.363126	-0.201760	0.844612	-0.363106	-0.207242	0.904648	-0.376404	-0.239177	0.540985	-0.383537	-0.212542	0.530373	-0.486115	-0.325853	0.418341	-0.353278	-0.344862	0.379924	-0.359950	-0.273925	0.398538	-0.365607	-0.288147	0.360913	-0.369599	-0.447260	0.095684	-0.441808	-0.284614	0.026623	-0.356456	-0.236160	0.043071	-0.444277	-0.202139	0.030364	-0.439686	-0.253669	0.873524	-0.776968	-0.234647	0.816285	-0.785984	-0.171368	0.831458	-0.786174	-0.182250	0.890167	-0.778618	-0.197961	0.551589	-0.760168	-0.172232	0.542231	-0.663912	-0.331221	0.406469	-0.777014	-0.343080	0.368160	-0.772616	-0.284155	0.354442	-0.789341	-0.279852	0.398320	-0.792110	-0.413682	0.098355	-0.725263	-0.247586	0.029553	-0.795804	-0.201008	0.041095	-0.713021	-0.162451	0.028299	-0.720369	
503	2.5150	-0.314441	1.660356	-0.570384	-0.266802	1.629086	-0.806453	-0.266598	1.631918	-0.359549	-0.175075	1.587500	-0.575976	-0.194844	1.124444	-0.455662	-0.189528	1.137278	-0.688204	-0.257794	1.188434	-0.408843	-0.253501	1.205483	-0.731840	-0.373203	1.165141	-0.514018	-0.370665	1.172009	-0.626346	-0.381304	1.165478	-0.571841	-0.278971	0.893980	-0.374706	-0.266885	0.836912	-0.363111	-0.202696	0.848205	-0.363269	-0.207924	0.908265	-0.376400	-0.241437	0.544854	-0.383373	-0.214395	0.534077	-0.485908	-0.327573	0.421832	-0.353239	-0.346326	0.383274	-0.359920	-0.275457	0.402389	-0.365270	-0.289365	0.364617	-0.369131	-0.446179	0.098665	-0.441285	-0.284407	0.026842	-0.356723	-0.236175	0.043195	-0.444056	-0.202382	0.030558	-0.439431	-0.254308	0.877633	-0.776911	-0.235497	0.820299	-0.785828	-0.172158	0.835207	-0.785812	-0.182820	0.893964	-0.778329	-0.200443	0.555329	-0.760038	-0.174786	0.545971	-0.663716	-0.332993	0.409467	-0.776883	-0.344531	0.371055	-0.772460	-0.285565	0.357803	-0.789416	-0.281618	0.401717	-0.792167	-0.412770	0.101150	-0.725836	-0.247295	0.029899	-0.795306	-0.201036	0.041214	-0.713260	-0.162700	0.028519	-0.720639	
504	2.5200	-0.314456	1.664342	-0.570508	-0.266645	1.633589	-0.806266	-0.266597	1.636883	-0.359766	-0.175416	1.591801	-0.575963	-0.194865	1.128356	-0.455534	-0.189220	1.141616	-0.687854	-0.257649	1.192859	-0.408858	-0.252904	1.210219	-0.731337	-0.372935	1.169919	-0.513878	-0.370358	1.176737	-0.626339	-0.381084	1.170438	-0.571754	-0.279727	0.897795	-0.374519	-0.267852	0.840658	-0.363059	-0.203632	0.851725	-0.363375	-0.208645	0.911805	-0.376362	-0.243474	0.548638	-0.383129	-0.216075	0.537738	-0.485663	-0.329122	0.425229	-0.353164	-0.347612	0.386548	-0.359836	-0.276823	0.406140	-0.364947	-0.290412	0.368234	-0.368641	-0.445070	0.101658	-0.440756	-0.284165	0.027108	-0.357038	-0.236189	0.043353	-0.443813	-0.202619	0.030796	-0.439095	-0.255056	0.881596	-0.776818	-0.236449	0.824175	-0.785639	-0.173051	0.838840	-0.785520	-0.183508	0.897640	-0.778110	-0.202791	0.558947	-0.759954	-0.177207	0.549599	-0.663564	-0.334624	0.412343	-0.776814	-0.345844	0.373827	-0.772374	-0.286823	0.361061	-0.789530	-0.283236	0.405003	-0.792265	-0.411840	0.103908	-0.726404	-0.247005	0.030290	-0.794748	-0.201077	0.041391	-0.713498	-0.162960	0.028823	-0.721021	
505	2.5250	-0.314448	1.668192	-0.570623	-0.266471	1.637939	-0.806063	-0.266605	1.641663	-0.360022	-0.175738	1.595925	-0.575944	-0.194969	1.132152	-0.455353	-0.188996	1.145740	-0.687539	-0.257712	1.197176	-0.408877	-0.252440	1.214761	-0.730862	-0.372756	1.174551	-0.513798	-0.370107	1.181328	-0.626364	-0.380933	1.175254	-0.571718	-0.280499	0.901485	-0.374305	-0.268809	0.844279	-0.362966	-0.204551	0.855150	-0.363418	-0.209389	0.915264	-0.376283	-0.245313	0.552314	-0.382805	-0.217612	0.541331	-0.485394	-0.330505	0.428512	-0.353047	-0.348726	0.389703	-0.359712	-0.278041	0.409770	-0.364586	-0.291317	0.371739	-0.368143	-0.443960	0.104637	-0.440220	-0.283899	0.027435	-0.357417	-0.236191	0.043571	-0.443541	-0.202849	0.031093	-0.438650	-0.255892	0.885414	-0.776696	-0.237490	0.827908	-0.785431	-0.174039	0.842339	-0.785288	-0.184285	0.901184	-0.777963	-0.205005	0.562420	-0.759912	-0.179502	0.553080	-0.663448	-0.336100	0.415081	-0.776806	-0.347005	0.376468	-0.772358	-0.287927	0.364181	-0.789680	-0.284695	0.408149	-0.792400	-0.410911	0.106615	-0.726953	-0.246736	0.030734	-0.794128	-0.201150	0.041639	-0.713725	-0.163247	0.029238	-0.721521	
506	2.5300	-0.314413	1.671888	-0.570731	-0.266290	1.642118	-0.805844	-0.266635	1.646232	-0.360326	-0.176032	1.599858	-0.575920	-0.195153	1.135820	-0.455123	-0.188851	1.149634	-0.687253	-0.257960	1.201361	-0.408902	-0.252099	1.219099	-0.730407	-0.372665	1.179015	-0.513773	-0.369910	1.185764	-0.626425	-0.380852	1.179885	-0.571728	-0.281282	0.905041	-0.374066	-0.269748	0.847780	-0.362836	-0.205466	0.858482	-0.363426	-0.210144	0.918613	-0.376163	-0.246973	0.555861	-0.382408	-0.219008	0.544836	-0.485109	-0.331753	0.431664	-0.352902	-0.349682	0.392724	-0.359555	-0.279122	0.413266	-0.364209	-0.292098	0.375121	-0.367657	-0.442872	0.107579	-0.439680	-0.283622	0.027839	-0.357872	-0.236178	0.043863	-0.443216	-0.203073	0.031473	-0.438061	-0.256793	0.889088	-0.776547	-0.238600	0.831493	-0.785197	-0.175097	0.845704	-0.785119	-0.185136	0.904582	-0.777875	-0.207072	0.565742	-0.759915	-0.181694	0.556411	-0.663372	-0.337414	0.417679	-0.776864	-0.348013	0.378974	-0.772409	-0.288875	0.367152	-0.789860	-0.285993	0.411145	-0.792572	-0.410003	0.109245	-0.727465	-0.246505	0.031243	-0.793445	-0.201276	0.041967	-0.713931	-0.163588	0.029802	-0.722136	
507	2.5350	-0.314350	1.675417	-0.570834	-0.266107	1.646111	-0.805606	-0.266698	1.650563	-0.360691	-0.176295	1.603580	-0.575891	-0.195407	1.139348	-0.454858	-0.188781	1.153288	-0.686993	-0.258363	1.205380	-0.408930	-0.251869	1.223223	-0.729973	-0.372657	1.183281	-0.513798	-0.369774	1.190003	-0.626509	-0.380834	1.184305	-0.571766	-0.282063	0.908448	-0.373827	-0.270660	0.851140	-0.362678	-0.206344	0.861677	-0.363354	-0.210899	0.921824	-0.376006	-0.248505	0.559237	-0.382026	-0.220267	0.548219	-0.484806	-0.332861	0.434659	-0.352735	-0.350480	0.395583	-0.359349	-0.280059	0.416608	-0.363805	-0.292749	0.378358	-0.367175	-0.441787	0.110427	-0.439179	-0.283342	0.028337	-0.358409	-0.236155	0.044259	-0.442830	-0.203287	0.031972	-0.437319	-0.257735	0.892609	-0.776386	-0.239754	0.834925	-0.784957	-0.176202	0.848912	-0.784998	-0.186032	0.907831	-0.777840	-0.208994	0.568894	-0.759969	-0.183744	0.559577	-0.663344	-0.338569	0.420135	-0.776980	-0.348876	0.381340	-0.772516	-0.289675	0.369964	-0.790066	-0.287129	0.413975	-0.792775	-0.409137	0.111776	-0.727935	-0.246345	0.031810	-0.792714	-0.201477	0.042385	-0.714111	-0.164016	0.030538	-0.722834	
508	2.5400	-0.314258	1.678764	-0.570932	-0.265926	1.649902	-0.805348	-0.266801	1.654632	-0.361120	-0.176523	1.607085	-0.575857	-0.195717	1.142732	-0.454574	-0.188786	1.156702	-0.686751	-0.258888	1.209209	-0.408960	-0.251739	1.227126	-0.729556	-0.372732	1.187327	-0.513858	-0.369705	1.194032	-0.626606	-0.380880	1.188493	-0.571837	-0.282838	0.911693	-0.373604	-0.271539	0.854347	-0.362505	-0.207187	0.864731	-0.363221	-0.211640	0.924897	-0.375814	-0.249957	0.562432	-0.381650	-0.221397	0.551454	-0.484486	-0.333823	0.437476	-0.352537	-0.351138	0.398268	-0.359094	-0.280863	0.419763	-0.363383	-0.293273	0.381413	-0.366698	-0.440734	0.113144	-0.438716	-0.283080	0.028937	-0.359022	-0.236127	0.044784	-0.442376	-0.203506	0.032634	-0.436420	-0.258690	0.895965	-0.776216	-0.240929	0.838192	-0.784716	-0.177324	0.851968	-0.784926	-0.186938	0.910933	-0.777854	-0.210769	0.571865	-0.760065	-0.185650	0.562568	-0.663364	-0.339575	0.422442	-0.777144	-0.349604	0.383566	-0.772682	-0.290345	0.372606	-0.790297	-0.288113	0.416625	-0.793003	-0.408337	0.114196	-0.728357	-0.246286	0.032444	-0.791946	-0.201769	0.042888	-0.714253	-0.164537	0.031464	-0.723589	
509	2.5450	-0.314137	1.681914	-0.571027	-0.265749	1.653478	-0.805070	-0.266943	1.658447	-0.361584	-0.176717	1.610363	-0.575819	-0.196076	1.145963	-0.454286	-0.188863	1.159873	-0.686521	-0.259499	1.212827	-0.408994	-0.251700	1.230794	-0.729153	-0.372884	1.191131	-0.513945	-0.369707	1.197821	-0.626705	-0.380994	1.192431	-0.571924	-0.283584	0.914744	-0.373384	-0.272369	0.857377	-0.362322	-0.207986	0.867635	-0.363031	-0.212353	0.927817	-0.375593	-0.251298	0.565413	-0.381298	-0.222388	0.554511	-0.484149	-0.334641	0.440096	-0.352303	-0.351674	0.400752	-0.358820	-0.281547	0.422702	-0.362964	-0.293685	0.384276	-0.366220	-0.439764	0.115718	-0.438296	-0.282867	0.029624	-0.359704	-0.236112	0.045481	-0.441864	-0.203745	0.033507	-0.435394	-0.259643	0.899142	-0.776044	-0.242093	0.841287	-0.784491	-0.178447	0.854853	-0.784881	-0.187848	0.913867	-0.777897	-0.212389	0.574645	-0.760196	-0.187368	0.565381	-0.663443	-0.340443	0.424606	-0.777352	-0.350221	0.385657	-0.772891	-0.290910	0.375065	-0.790543	-0.288963	0.419095	-0.793252	-0.407623	0.116503	-0.728738	-0.246346	0.033127	-0.791160	-0.202149	0.043477	-0.714358	-0.165167	0.032580	-0.724337	
